# xmcd CD database file
#
# Track frame offsets:
#	150
#	17147
#	34403
#	53476
#	72927
#	91616
#	108387
#	126924
#	146774
#	162917
#
# Disc length: 2437 seconds
#
# Revision: 3
# Processed by: cddbd v1.5.2PL0 Copyright (c) Steve Scherf et al.
# Submitted via: CDex 1.70beta2
#
DISCID=8309830a
DTITLE=유리상자 - 6th FAVORITE
DYEAR=2002
DGENRE=Ballad
TTITLE0=내 사람
TTITLE1=옛날 옛적에
TTITLE2=사랑의 끝은
TTITLE3=그럴 수 밖에
TTITLE4=BYE-BYE LOVE
TTITLE5=산골 소년의 사랑 이야기
TTITLE6=내가 더 잘해볼게요
TTITLE7=거짓말이라도
TTITLE8=좋은날
TTITLE9=GOOD-NIGHT
EXTD=YEAR: 2002
EXTT0=
EXTT1=
EXTT2=
EXTT3=
EXTT4=
EXTT5=
EXTT6=
EXTT7=
EXTT8=
EXTT9=
PLAYORDER=
